<svg id="C3_Logo_White_Inline_Revelstoke" xmlns="http://www.w3.org/2000/svg" viewBox="0 0 377.723 88">
  <defs>
    <style>
      .cls-1 {
        fill: #fff;
      }

      .cls-2 {
        fill: none;
      }
    </style>
  </defs>
  <path id="Shape" class="cls-1" d="M21.362,54.153a.253.253,0,0,1-.111-.024h-.1a.57.57,0,0,1-.22-.062.963.963,0,0,1-.347-.185,1.448,1.448,0,0,1-.212-.177l-.008-.008-.014-.021a2.792,2.792,0,0,1-.174-.287,1.179,1.179,0,0,1-.063-.463V52.8a.413.413,0,0,1,.063-.185.544.544,0,0,1,.157-.216l.021-.02a2.546,2.546,0,0,1,.294-.259l.158-.108c.053-.038.109-.077.157-.108.137-.076.275-.166.409-.252l.06-.039c.072-.046.146-.094.223-.141l.756-.463.243-.153.033-.021c.45-.286.96-.609,1.458-.969l.246-.177.025-.018c.535-.386,1.089-.784,1.653-1.257a22.336,22.336,0,0,0,3.94-4.14,18.6,18.6,0,0,0,1.639-2.748,19.218,19.218,0,0,0,1.2-3.181c.1-.315.163-.606.221-.863l.031-.22.032-.215c.015-.076.023-.145.031-.212v-.009c.008-.067.016-.136.031-.212a9.995,9.995,0,0,0,.127-1.7,7.2,7.2,0,0,0-.284-1.668,6.771,6.771,0,0,0-.756-1.482,5.809,5.809,0,0,0-1.23-1.236,10.089,10.089,0,0,0-1.576-.957,13,13,0,0,0-1.828-.711l-.012,0-.052-.014c-.63-.175-1.282-.356-1.923-.475-.7-.157-1.433-.253-2.075-.338-.181-.018-.367-.041-.528-.062s-.366-.047-.549-.063l-1.1-.124c-.166-.027-.367-.059-.6-.092a1.586,1.586,0,0,1-.346-.062,1,1,0,0,1-.252-.061.434.434,0,0,1-.182-.058l-.008,0-.125-.062-.123-.059-.066-.033a.859.859,0,0,1-.253-.216,1.546,1.546,0,0,1-.282-.556,1.463,1.463,0,0,1,0-.525.114.114,0,0,0,.03-.092c.016-.046.032-.1.048-.154s.032-.108.048-.154a1.448,1.448,0,0,1,.1-.216l.037-.074c.02-.037.038-.074.057-.111a2.622,2.622,0,0,1,.183-.3l.007-.01c.061-.093.124-.185.187-.276l.11-.149c.206-.279.4-.542.616-.78.124-.137.243-.277.355-.408l.03-.035c.109-.129.222-.262.341-.391l.174-.193c.474-.524.872-.961,1.307-1.414l1.481-1.575c.969-1.042,1.918-2.064,2.87-3.12l.019-.021c.853-.948,1.82-2.022,2.692-3.1.179-.2.385-.452.63-.772.058-.075.116-.153.174-.232l.01-.013c.131-.177.267-.361.415-.527q.283-.391.563-.782l0-.006.061-.084.507-.7c.374-.52.693-1.049,1-1.561l.008-.013.026-.048c.27-.5.548-1.019.762-1.527a7.636,7.636,0,0,0,.441-1.452,4.045,4.045,0,0,0,.032-.618,1.241,1.241,0,0,0-.094-.463.745.745,0,0,0-.19-.341l-.079-.078-.078-.077-.1-.061h-.032l-.03-.032h-.032a2.466,2.466,0,0,0-.6-.371,2.1,2.1,0,0,0-.6-.277,5.992,5.992,0,0,0-1.872-.3,5.624,5.624,0,0,0-.776.053,9.809,9.809,0,0,0-2.648.649,10.957,10.957,0,0,0-1.229.525l-.721.352-.032.016L25,4.924c-.541.264-1.036.538-1.514.8-.2.109-.385.212-.566.309-.545.294-1.122.618-1.766.989l-1.449.834-1.1.618c-.327.16-.553.288-.694.371l-.189.092-.032.03h-.032a.546.546,0,0,1-.21.042.472.472,0,0,1-.42-.227.446.446,0,0,1,0-.4v.03l.03-.062a.267.267,0,0,1,.1-.185c.076-.124.235-.377.441-.68A17.771,17.771,0,0,1,19.611,5.17a18.069,18.069,0,0,1,1.639-1.452,16.835,16.835,0,0,1,2.175-1.482c.129-.069.257-.139.388-.211l.021-.012c.279-.154.568-.313.883-.457.526-.241,1.025-.449,1.481-.618A14.276,14.276,0,0,1,27.839.413,11.907,11.907,0,0,1,29.667.074,8.064,8.064,0,0,1,30.777,0c.3,0,.6.015.908.044A8.015,8.015,0,0,1,34.838.97l.025.015c.3.177.614.361.92.571l.032.032.063.03.032.03.032.032.032.03.063.062a.806.806,0,0,1,.115.1l.009.009a.934.934,0,0,0,.128.11c.155.152.314.308.473.494a4.012,4.012,0,0,1,.693,1.236,4.668,4.668,0,0,1,.252,1.329l.19-.062a5.5,5.5,0,0,1-.063,1.236,7.381,7.381,0,0,1-.284,1.111,6.57,6.57,0,0,1-.379,1.019,15.482,15.482,0,0,1-1.008,1.885c-.451.735-.811,1.278-1.167,1.761l-.022.03c-.351.477-.788,1.071-1.239,1.637l-.009.012-.234.3-.418.527c-.106.133-.221.261-.332.385l-.011.012c-.128.141-.243.269-.351.407-.915,1.052-1.906,2.116-2.864,3.146-.937,1.007-1.915,2-2.86,2.954l-.02.02-.119.12L25,23.055c-.5.5-1.009,1.02-1.482,1.514-.145.182-.306.355-.459.517L23,25.147c-.061.066-.121.13-.178.194l-.063.062.252.03c.284.05.614.106,1.1.185.748.123,1.482.248,2.239.433.717.175,1.439.387,2.206.648a18.038,18.038,0,0,1,2.113.9,9.993,9.993,0,0,1,1.954,1.266,8.3,8.3,0,0,1,1.576,1.731,7.156,7.156,0,0,1,.946,2.07,8.283,8.283,0,0,1,.284,2.162,11.369,11.369,0,0,1-.22,2.038,3.781,3.781,0,0,0-.123.476l0,.019-.063.247-.062.247q-.143.463-.284.927a19.9,19.9,0,0,1-3.342,6.3,25.209,25.209,0,0,1-2.144,2.347c-.619.579-1.32,1.167-2.207,1.853a40.232,40.232,0,0,1-3.909,2.565l-.788.463-.285.17-.018.011c-.129.077-.251.149-.359.22a1.123,1.123,0,0,0-.284.185.7.7,0,0,1-.1.078.912.912,0,0,0-.094.077.113.113,0,0,0,.016.048.1.1,0,0,1,.016.045.18.18,0,0,0,.032.124c.028.04.054.074.078.1a.712.712,0,0,1,.079.112.579.579,0,0,0,.063.092.579.579,0,0,1,.063.093.271.271,0,0,1,.137.158.235.235,0,0,1-.012.182A.3.3,0,0,1,21.362,54.153ZM6.592,45.709a5.222,5.222,0,0,1-.883-.074,3.832,3.832,0,0,1-.82-.185l-.1-.038-.077-.028a5.993,5.993,0,0,1-.607-.243,4.1,4.1,0,0,1-.725-.557c-.229-.191-.446-.372-.631-.556a4.811,4.811,0,0,1-.536-.586c-.017-.026-.037-.051-.057-.077l-.021-.026a1.157,1.157,0,0,1-.143-.206,1.251,1.251,0,0,0-.107-.165,1.244,1.244,0,0,1-.114-.176L1.706,42.7l-.032-.03-.032-.032-.1-.123-.094-.186a.613.613,0,0,1-.088-.141l-.007-.014c-.12-.235-.212-.446-.3-.65l-.013-.03a12.321,12.321,0,0,1-.473-1.39c-.1-.384-.186-.778-.275-1.217l-.041-.2a11.029,11.029,0,0,1-.189-1.422,21.448,21.448,0,0,1-.032-2.841,25.027,25.027,0,0,1,.883-5.5c.061-.278.149-.564.243-.857l.043-.138c.031-.1.063-.2.092-.3s.06-.184.093-.275l.014-.04c.04-.107.081-.222.114-.334a5.2,5.2,0,0,1,.222-.648c.314-.865.7-1.679,1.071-2.467A23.526,23.526,0,0,1,4.1,21.573a17.237,17.237,0,0,1,1.544-2.1l.05-.059.011-.013c.131-.155.244-.289.38-.423l.236-.232.238-.231a3.333,3.333,0,0,1,.253-.218c.092-.074.175-.14.251-.214s.174-.126.255-.191l.01-.008.025-.02A2.942,2.942,0,0,1,7.6,17.68a9.338,9.338,0,0,1,1.166-.741l.158-.092.032-.032.062-.03.1-.032.063-.03h.032l.063-.03H9.3l.032-.032h.032l.063-.03a3.649,3.649,0,0,1,.617-.213l.014,0a6.485,6.485,0,0,1,1.356-.247,3.946,3.946,0,0,1,.5-.033,4.2,4.2,0,0,1,.883.1q.333.091.663.185c.043.014.093.035.142.056l.021.009.04.016c.039.016.077.031.112.043a1.156,1.156,0,0,1,.284.123,1.169,1.169,0,0,0,.143.078,1.141,1.141,0,0,1,.141.077c.049.032.088.055.129.079s.077.045.123.075a4.537,4.537,0,0,1,.458.329l.015.012a5.437,5.437,0,0,1,.725.741c.186.243.338.48.5.742a7.351,7.351,0,0,1,.6,1.358,7.174,7.174,0,0,1,.284,1.113,2.3,2.3,0,0,1,.063.433,1.437,1.437,0,0,0,.016.185,1.441,1.441,0,0,1,.016.185v.711a.459.459,0,0,1-.451.4.381.381,0,0,1-.054,0,.429.429,0,0,1-.346-.216l-.063-.092-.1-.154-.157-.216c-.063-.092-.127-.185-.189-.279l-.284-.215a5.84,5.84,0,0,0-.406-.536l-.007-.008-.03-.036c-.051-.063-.1-.127-.156-.192a6.55,6.55,0,0,0-.788-.834,5.06,5.06,0,0,0-.946-.649,1.64,1.64,0,0,0-.5-.185l-.031-.01-.019-.007a.555.555,0,0,0-.2-.045.714.714,0,0,0-.252-.03,2.717,2.717,0,0,0-.462.049l-.074.012c-.236.066-.447.126-.63.186-.064.031-.12.055-.172.077s-.109.045-.176.078l-.032.03h-.032l-.063.032H10.6l-.063.03-.025.017c-.217.151-.427.3-.606.446a7.674,7.674,0,0,0-1.324,1.328c-.406.513-.819,1.095-1.229,1.731-.306.459-.57.944-.85,1.457q-.141.26-.285.519a22.241,22.241,0,0,0-.989,2.117l-.02.045c-.094.218-.174.432-.258.659L4.94,28.3c-.057.152-.115.306-.177.465-.116.3-.214.59-.309.875l-.013.039q-.044.133-.087.261c-.063.182-.116.369-.171.567l-.021.076,0,.014c-.047.169-.1.345-.151.517-.123.395-.219.8-.311,1.185l0,.019a20.9,20.9,0,0,0-.441,2.441A20.666,20.666,0,0,0,3.123,37.2a11.607,11.607,0,0,0,.253,2.347,3.315,3.315,0,0,0,.125.556c.03.088.061.17.091.252l.011.031c.029.079.058.158.086.242.04.119.093.234.144.346l.013.029c.024.053.046.1.065.15a.152.152,0,0,1,.03.061.16.16,0,0,0,.032.063l.032.061V41.4l.063.161.032.032.032.061a.605.605,0,0,0,.045.07l.009.014a.573.573,0,0,1,.071.132.5.5,0,0,0,.127.216,3.165,3.165,0,0,0,.315.371,3.063,3.063,0,0,0,.693.586,2.448,2.448,0,0,0,.788.309,3.139,3.139,0,0,0,.661.074c.087,0,.172,0,.253-.012a6.349,6.349,0,0,0,2.017-.432,15.453,15.453,0,0,0,1.923-.9A19.842,19.842,0,0,0,12.77,41l.271-.191c.489-.342.894-.629,1.275-.952.162-.138.333-.279.536-.444l.059-.049c.255-.21.5-.408.729-.619q.546-.495,1.018-.916l.116-.1.506-.463.441-.432c.555-.513,1-.951,1.292-1.267l.347-.339.125-.124a.413.413,0,0,1,.315-.143.407.407,0,0,1,.284.112.382.382,0,0,1,.063.525l-.158.123-.057.082-.044.063c-.051.071-.111.154-.181.257-.141.169-.307.377-.5.618l-.012.015-.089.112c-.169.212-.357.448-.567.7-.555.68-1.2,1.4-1.923,2.132-.382.4-.829.843-1.261,1.267-.524.511-1.023.958-1.482,1.328-.672.541-1.233.963-1.765,1.328-.333.229-.723.471-1.008.648-.359.223-.755.417-1.1.588l-.03.013-.011,0a8.7,8.7,0,0,1-1.22.476,7.667,7.667,0,0,1-1.419.309A6.263,6.263,0,0,1,6.592,45.709Z" transform="translate(17.6 17.6)"/>
  <path id="Shape-2" data-name="Shape" class="cls-1" d="M2.31,17.6H0V0H7.486c3.5,0,5.857,2.132,5.857,5.305a4.944,4.944,0,0,1-1.46,3.663,5.531,5.531,0,0,1-3.388,1.457L13.536,17.6l-2.732,0L6.021,10.609H2.31V17.6Zm0-15.638V8.678H7.193A3.4,3.4,0,0,0,10.9,5.305c0-2-1.491-3.342-3.709-3.342Z" transform="translate(77.169 44.677)"/>
  <path id="Shape-3" data-name="Shape" class="cls-1" d="M0,0H12.185V1.959H2.333V7.622H11.99V9.581H2.333v6.061h9.851V17.6H0Z" transform="translate(106.954 44.677)"/>
  <path id="Shape-4" data-name="Shape" class="cls-1" d="M0,0H2.614L8.8,15.178,14.986,0H17.6L10.235,17.6H7.4Z" transform="translate(132.677 44.677)"/>
  <path id="Shape-5" data-name="Shape" class="cls-1" d="M0,0H12.185V1.959H2.333V7.622H11.99V9.581H2.333v6.061h9.851V17.6H0Z" transform="translate(166.523 44.677)"/>
  <path id="Shape-6" data-name="Shape" class="cls-1" d="M.032,0H2.307V15.638h8.524V17.6H0Z" transform="translate(194.954 44.677)"/>
  <path id="Shape-7" data-name="Shape" class="cls-1" d="M1.316,14.255a7.637,7.637,0,0,0,5.672,2.621c3.2,0,4.231-1.758,4.231-3.164,0-2.205-2.194-2.813-4.544-3.452C3.792,9.493.6,8.662.6,5.082.6,2.046,3.228,0,6.769,0a8.33,8.33,0,0,1,6.393,2.557L11.815,4.219a6.843,6.843,0,0,0-5.2-2.205c-2.162,0-3.7,1.183-3.7,2.909,0,1.854,2.068,2.4,4.356,3.036,2.946.8,6.268,1.726,6.268,5.593,0,2.653-1.786,5.4-6.644,5.4A8.815,8.815,0,0,1,0,16.045Z" transform="translate(220.677 44.677)"/>
  <path id="Shape-8" data-name="Shape" class="cls-1" d="M5.664,1.962H0V0H13.538V1.962H7.874V17.6H5.664Z" transform="translate(249.108 44.677)"/>
  <path id="Shape-9" data-name="Shape" class="cls-1" d="M8.8,18.954a8.484,8.484,0,0,1-6.369-2.7A9.964,9.964,0,0,1,0,9.476,9.961,9.961,0,0,1,2.432,2.7,8.484,8.484,0,0,1,8.8,0a8.481,8.481,0,0,1,6.356,2.7A9.948,9.948,0,0,1,17.6,9.476a9.964,9.964,0,0,1-2.431,6.773A8.482,8.482,0,0,1,8.8,18.954Zm0-16.912A6.046,6.046,0,0,0,4.049,4.156a8.157,8.157,0,0,0-1.764,5.32A8.159,8.159,0,0,0,4.049,14.8,6.046,6.046,0,0,0,8.8,16.912a6.038,6.038,0,0,0,4.751-2.126,8.156,8.156,0,0,0,1.764-5.31C15.315,5.1,12.636,2.042,8.8,2.042Z" transform="translate(277.538 44.677)"/>
  <path id="Shape-10" data-name="Shape" class="cls-1" d="M4.015,9.689,2.21,11.682V17.6H0V0H2.21V9.107L10.115,0h2.77L5.447,8.371,13.538,17.6h-2.77Z" transform="translate(312.738 44.677)"/>
  <path id="Shape-11" data-name="Shape" class="cls-1" d="M.032,0H12.185V1.959H2.333V7.622H11.99V9.581H2.333v6.061h9.851V17.6H0Z" transform="translate(342.523 44.677)"/>
  <rect id="Rectangle-path" class="cls-2" width="377.723" height="88"/>
</svg>
